# xmcd
#
# Track frame offsets: 
#        150
#        20350
#        37693
#        55265
#        73279
#        85693
#        101105
#        118314
#        135007
#        150779
#        170348
#        196266
#
# Disc length: 2811 seconds
#
# Revision: 0
# Processed by: cddbd v1.5.2PL0 Copyright (c) Steve Scherf et al.
# Submitted via: ExactAudioCopy v0.99pb3
#
DISCID=8d0af90c
DTITLE=Loser Andi and the Poets - bending rainbows
DYEAR=2009
DGENRE=Ballad
TTITLE0=you can't hide
TTITLE1=one thing at a time
TTITLE2=magic
TTITLE3=ain't it you
TTITLE4=bending rainbows
TTITLE5=promises
TTITLE6=for old times' sake
TTITLE7=stop on cue
TTITLE8=tell me
TTITLE9=the way i am 
TTITLE10=fading
TTITLE11=the bottletree (bonus track)
EXTD=
EXTT0=
EXTT1=
EXTT2=
EXTT3=
EXTT4=
EXTT5=
EXTT6=
EXTT7=
EXTT8=
EXTT9=
EXTT10=
EXTT11=
PLAYORDER=
